<svg width="512" height="512" viewBox="0 0 512 512" fill="none" xmlns="http://www.w3.org/2000/svg">
<ellipse cx="255.54" cy="256" rx="255.54" ry="256" fill="#4ABDAC"/>
<path fill-rule="evenodd" clip-rule="evenodd" d="M306.299 506.149L145.238 334L223.597 191L230.585 184L284.488 225.5C301.79 209.5 336.694 176.3 337.892 171.5C338.351 169.659 332.979 156.193 326.311 139.479C315.589 112.606 301.518 77.3372 302.955 68.5L512 261.415C509.018 382.879 421.587 483.354 306.299 506.149Z" fill="#186859"/>
<path d="M221.561 191.458L274.206 282.805C273.56 283.092 272.902 283.376 272.239 283.663C270.45 284.435 268.622 285.224 266.889 286.122L266.869 286.132L266.849 286.144L246.588 297.863L245.188 298.672L246.536 299.564L301.706 336.065L301.716 336.072L301.725 336.078C307.603 339.779 310.544 347.29 308.677 354.276C308.677 354.277 308.677 354.278 308.676 354.279L300.845 383.077L300.842 383.089L300.839 383.102C299.802 387.338 297.036 390.976 293.192 393.2C292.246 393.747 291.225 394.203 290.143 394.56L290.136 394.562C284.707 396.395 278.818 395.327 274.38 391.723C274.379 391.722 274.378 391.722 274.377 391.721L196.521 327.57L195.987 327.13L195.387 327.477L190.764 330.15C187.032 332.309 182.252 331.027 180.096 327.286L175.692 319.644L175.193 318.778L174.327 319.279L151.442 332.515C147.71 334.673 142.931 333.391 140.775 329.651L114.35 283.799C112.194 280.058 113.476 275.27 117.208 273.112L140.092 259.875L140.958 259.375L140.459 258.508L136.054 250.866C133.899 247.125 135.18 242.338 138.912 240.179L214.921 196.217L214.94 196.205L214.96 196.193C216.618 195.129 218.225 193.932 219.8 192.76C220.391 192.32 220.978 191.883 221.561 191.458Z" fill="#A5A5A5" stroke="white" stroke-width="2"/>
<path d="M303.269 69.7928L303.281 69.7991L303.292 69.8052C304.6 70.504 305.698 71.3893 306.421 72.6425L420.93 271.335C421.651 272.586 421.867 273.978 421.818 275.46C421.8 275.815 421.788 276.071 421.751 276.376C421.558 277.787 421.061 279.069 420.191 280.158C420.11 280.256 420.06 280.352 420.029 280.423C419.437 281.074 418.791 281.606 418.072 282.022C417.103 282.583 416.058 282.888 414.976 283.02C414.95 283.021 414.898 283.018 414.768 283C414.753 282.998 414.736 282.996 414.718 282.993C414.594 282.975 414.394 282.946 414.193 282.943L414.18 282.943L414.167 282.943C413.309 282.951 412.5 282.863 411.759 282.623C411.581 282.561 411.419 282.547 411.34 282.542C370.942 267.414 326.738 267.18 286.352 280.893L230.878 184.637C262.908 156.47 284.793 118.014 291.926 75.4298C291.934 75.4166 291.942 75.4027 291.95 75.3882C291.987 75.3204 292.034 75.2216 292.067 75.0969L292.075 75.0698L292.08 75.0424C292.362 73.6913 292.984 72.4655 293.932 71.4082C294.001 71.3336 294.081 71.2621 294.196 71.1683C294.219 71.1495 294.246 71.1282 294.275 71.1049C294.373 71.0254 294.501 70.9227 294.617 70.8182L294.618 70.8171C294.785 70.667 294.965 70.4827 295.11 70.3344C295.173 70.2705 295.229 70.2134 295.274 70.1685C295.458 69.9871 295.603 69.8654 295.753 69.7784C296.301 69.4612 296.883 69.319 297.618 69.1392C297.701 69.1189 297.786 69.0982 297.873 69.0766C298.06 69.0312 298.214 68.9499 298.317 68.885C298.351 68.8827 298.387 68.8787 298.424 68.8724C299.798 68.6618 301.168 68.8849 302.488 69.415L302.495 69.418L302.503 69.421C302.778 69.5263 302.991 69.6349 303.269 69.7928ZM420.143 280.295C420.142 280.296 420.141 280.297 420.14 280.298C420.142 280.295 420.144 280.293 420.147 280.29L420.143 280.295ZM298.479 68.7722C298.483 68.7698 298.485 68.7688 298.485 68.7689C298.485 68.7689 298.483 68.7701 298.479 68.7722Z" fill="#A5A5A5" stroke="white" stroke-width="2"/>
</svg>
