<?xml version="1.0" encoding="utf-8"?>
<!-- Generator: Adobe Illustrator 16.0.0, SVG Export Plug-In . SVG Version: 6.00 Build 0)  -->
<!DOCTYPE svg PUBLIC "-//W3C//DTD SVG 1.1//EN" "http://www.w3.org/Graphics/SVG/1.1/DTD/svg11.dtd">
<svg version="1.1" id="Layer_1" xmlns="http://www.w3.org/2000/svg" xmlns:xlink="http://www.w3.org/1999/xlink" x="0px" y="0px"
	 width="500px" height="500px" viewBox="0 0 500 500" enable-background="new 0 0 500 500" xml:space="preserve">
<g>
	<circle fill="#35BEAE" cx="240.608" cy="263.779" r="176.005"/>
	<path fill="#FFFFFF" d="M325,336.784V369H219.694l59-171.108c0,0,3.666-6.054-6.5-5.387l-62.833-0.079
		c0,0-28.666,8.039-9.332,36.039l28,23.993l-12,31.997c0,0-52-38.668-52-51.335c0,0-16.667-31.333,9.333-58
		c0,0,11.333-15.882,54.667-15.216L300.693,160h22c0,0,5.809-0.557,0.152,10.976l-12.838,38.352l-41.98,119.149c0,0-3,4.652,1,6.652
		l51.819,0.659C320.847,335.788,325,334.787,325,336.784z"/>
	<path fill="#FFFFFF" d="M199.196,332.557l-11.249,32.722c0,0-37.583-18.278-32.249-54.278h32.996
		C188.694,311,188.36,330.893,199.196,332.557z"/>
</g>
</svg>
