<svg width="125" height="22" viewBox="0 0 125 22" fill="none" xmlns="http://www.w3.org/2000/svg">
<rect width="125" height="22" fill="white"/>
<path d="M29.1994 20H5.41826H5V19.5709V3.42907V3H5.41826H29.1994H29.6176V3.42907V19.5709V20H29.1994Z" fill="#005A9C"/>
<path fill-rule="evenodd" clip-rule="evenodd" d="M29.1994 19.5709H5.41833V3.42908H29.1994V19.5709Z" fill="white"/>
<path fill-rule="evenodd" clip-rule="evenodd" d="M14.0134 14.1215L15.5577 8.89734H16.9358L15.3912 14.1215H14.0134Z" fill="#005A9C"/>
<path fill-rule="evenodd" clip-rule="evenodd" d="M13.3973 8.89868L12.1576 11.1133C11.8422 11.6933 11.6575 11.9863 11.5689 12.3527H11.55C11.572 11.8883 11.5088 11.3176 11.5029 10.9952L11.3659 8.89868H9.04615L9.02234 9.03936C9.61821 9.03936 9.97161 9.34644 10.069 9.97467L10.5211 14.1214H11.9488L14.8355 8.89868H13.3973Z" fill="#005A9C"/>
<path fill-rule="evenodd" clip-rule="evenodd" d="M24.1138 14.1215L24.0759 13.3447L22.3552 13.3432L22.0032 14.1215H20.507L23.2198 8.90735H25.0561L25.5154 14.1215H24.1138V14.1215ZM23.9557 11.0399C23.9404 10.6538 23.9277 10.1299 23.953 9.81263H23.9327C23.8488 10.072 23.4887 10.8507 23.3301 11.2338L22.8175 12.3787H24.0257L23.9557 11.0399Z" fill="#005A9C"/>
<path fill-rule="evenodd" clip-rule="evenodd" d="M18.3825 14.2699C17.4097 14.2699 16.7639 13.9533 16.3031 13.6709L16.9595 12.6427C17.3733 12.88 17.6982 13.1541 18.4459 13.1541C18.6862 13.1541 18.9177 13.0901 19.0494 12.8563C19.241 12.5165 19.0053 12.3337 18.467 12.021L18.2012 11.8437C17.4032 11.2843 17.058 10.7531 17.4336 9.82566C17.6741 9.23234 18.3081 8.78271 19.354 8.78271C20.0751 8.78271 20.7516 9.10273 21.1456 9.41555L20.3909 10.3236C20.0062 10.0046 19.6876 9.84319 19.3228 9.84319C19.032 9.84319 18.8111 9.95829 18.7349 10.1135C18.5913 10.4052 18.7811 10.6042 19.2005 10.871L19.5168 11.0774C20.4856 11.7043 20.7164 12.3616 20.4736 12.9759C20.0557 14.0339 19.2379 14.2699 18.3825 14.2699Z" fill="#005A9C"/>
<path fill-rule="evenodd" clip-rule="evenodd" d="M25.9258 9.60532H25.8661V9.23258H26.0039C26.0916 9.23258 26.1364 9.26405 26.1364 9.33977C26.1364 9.40731 26.0961 9.43519 26.0416 9.44151L26.1433 9.60532H26.0758L25.9819 9.44597H25.9258V9.60532V9.60532ZM25.9924 9.39366C26.0373 9.39366 26.0768 9.3892 26.0768 9.33517C26.0768 9.2902 26.0338 9.28474 25.9979 9.28474H25.9258V9.39366H25.9924ZM25.9906 9.74931C25.8019 9.74931 25.6676 9.60432 25.6676 9.41263C25.6676 9.21002 25.8168 9.07581 25.9906 9.07581C26.1628 9.07581 26.3118 9.21002 26.3118 9.41263C26.3118 9.61509 26.1628 9.74931 25.9906 9.74931ZM25.9906 9.13443C25.8484 9.13443 25.7379 9.24881 25.7379 9.41277C25.7379 9.56581 25.8344 9.69097 25.9906 9.69097C26.1311 9.69097 26.2416 9.57759 26.2416 9.41277C26.2416 9.24881 26.1311 9.13443 25.9906 9.13443Z" fill="#005A9C"/>
<path fill-rule="evenodd" clip-rule="evenodd" d="M28.6139 15.7439H6.04565V18.8415H28.6139V15.7439Z" fill="#FBAA29"/>
<path fill-rule="evenodd" clip-rule="evenodd" d="M28.572 4.20142H6.00391V7.29905H28.572V4.20142Z" fill="#005A9C"/>
<path fill-rule="evenodd" clip-rule="evenodd" d="M28.0564 18.6212H27.9967V18.2485H28.1344C28.2222 18.2485 28.2669 18.2799 28.2669 18.3554C28.2669 18.4231 28.2265 18.4511 28.1721 18.4573L28.2739 18.6212H28.2064L28.1125 18.4619H28.0564V18.6212ZM28.1232 18.4096C28.1679 18.4096 28.2074 18.4051 28.2074 18.3509C28.2074 18.3059 28.1644 18.3006 28.1285 18.3006H28.0565V18.4096H28.1232ZM28.1214 18.7652C27.9327 18.7652 27.7983 18.6201 27.7983 18.4284C27.7983 18.2258 27.9474 18.0916 28.1214 18.0916C28.2934 18.0916 28.4425 18.2258 28.4425 18.4284C28.4425 18.631 28.2934 18.7652 28.1214 18.7652ZM28.1214 18.1502C27.979 18.1502 27.8685 18.2644 27.8685 18.4284C27.8685 18.5813 27.965 18.7066 28.1214 18.7066C28.2617 18.7066 28.3722 18.5932 28.3722 18.4284C28.3722 18.2644 28.2617 18.1502 28.1214 18.1502Z" fill="#005A9C"/>
<path fill-rule="evenodd" clip-rule="evenodd" d="M57.4299 14.0118C57.4299 14.4374 57.0435 14.636 56.3517 14.636H55.0295V14.2103H56.3517C56.4737 14.2103 56.5756 14.1962 56.6161 14.1677C56.6568 14.1394 56.6975 14.0968 56.6975 14.0401C56.6975 13.9832 56.657 13.9266 56.6161 13.8983C56.5756 13.8698 56.4942 13.8557 56.3721 13.8557C55.7416 13.8414 54.9483 13.8698 54.9483 13.2455C54.9483 12.9616 55.2127 12.6494 55.9246 12.6494H57.2875V13.0751H56.0265C55.9044 13.0751 55.823 13.0751 55.7619 13.1034C55.7009 13.146 55.6603 13.1886 55.6603 13.2596C55.6603 13.3306 55.7214 13.3731 55.8028 13.4014C55.8842 13.4157 55.9656 13.4299 56.0672 13.4299H56.4333C56.8198 13.4299 57.0638 13.4866 57.2266 13.5861C57.3487 13.6853 57.4299 13.8132 57.4299 14.0118ZM54.5618 13.5862C54.399 13.4867 54.155 13.43 53.7685 13.43H53.4024C53.3008 13.43 53.2194 13.4157 53.138 13.4015C53.0566 13.3732 52.9955 13.3307 52.9955 13.2597C52.9955 13.1887 53.0159 13.1461 53.0971 13.1035C53.1582 13.0752 53.2396 13.0752 53.3617 13.0752H54.6228V12.6495H53.2599C52.5276 12.6495 52.2836 12.9617 52.2836 13.2456C52.2836 13.8698 53.0769 13.8415 53.7074 13.8558C53.8295 13.8558 53.9109 13.8699 53.9515 13.8984C53.9922 13.9267 54.0329 13.9833 54.0329 14.0402C54.0329 14.0969 53.9923 14.1395 53.9515 14.1678C53.8904 14.1963 53.809 14.2104 53.6871 14.2104H52.3649V14.6361H53.6871C54.3787 14.6361 54.7653 14.4374 54.7653 14.0119C54.7653 13.8132 54.6837 13.6853 54.5618 13.5862ZM51.958 14.2247H50.3512V13.8273H51.9175V13.4301H50.3512V13.061H51.958V12.6496H49.6798V14.6362H51.958V14.2247ZM48.9476 12.7487C48.7237 12.6638 48.4594 12.6495 48.1136 12.6495H46.5473V14.6361H47.2389V13.9125H47.9713C48.2153 13.9125 48.3576 13.9268 48.4595 13.9976C48.5816 14.0969 48.5816 14.2673 48.5816 14.395V14.6361H49.2528V14.253C49.2528 14.0685 49.2325 13.9833 49.1512 13.8841C49.0902 13.8272 48.9681 13.7563 48.8053 13.7137C48.9884 13.6711 49.2937 13.501 49.2937 13.1887C49.2935 12.9617 49.1714 12.8339 48.9476 12.7487ZM45.0828 12.6495H42.9062L42.0315 13.3023L41.1975 12.6495H38.4514V14.6361H41.1568L42.0315 13.9833L42.8655 14.6361H44.1877V13.9694H45.0421C45.6319 13.9694 46.2219 13.8558 46.2219 13.3024C46.2219 12.763 45.6116 12.6495 45.0828 12.6495ZM48.3983 13.4726C48.2967 13.5009 48.1948 13.5009 48.0729 13.5009L47.2389 13.515V13.0609H48.0729C48.1948 13.0609 48.3169 13.0609 48.3983 13.1035C48.4797 13.1318 48.5407 13.1887 48.5407 13.2739C48.5407 13.359 48.4797 13.43 48.3983 13.4726ZM45.0828 13.5719H44.1877V13.0609H45.0828C45.327 13.0609 45.4896 13.1318 45.4896 13.3023C45.4896 13.4727 45.3268 13.5719 45.0828 13.5719ZM42.4587 13.6428L43.5164 12.8622V14.4659L42.4587 13.6428ZM40.811 14.2247H39.1226V13.8273H40.6279V13.4301H39.1226V13.061H40.8313L41.584 13.6429L40.811 14.2247ZM55.5381 11.2162H54.5618L53.2803 9.72622V11.2162H51.8971L51.6326 10.7763H50.2088L49.9444 11.2162H49.1511C48.8255 11.2162 48.3985 11.1595 48.1543 10.9891C47.9304 10.8189 47.8085 10.5918 47.8085 10.237C47.8085 9.93905 47.8694 9.66934 48.1745 9.45651C48.378 9.30036 48.7441 9.22948 49.2118 9.22948H49.8628V9.65514H49.2118C48.9678 9.65514 48.8253 9.68353 48.683 9.76871C48.561 9.85378 48.4999 10.0099 48.4999 10.2228C48.4999 10.4356 48.561 10.5917 48.683 10.691C48.7846 10.762 48.9678 10.7904 49.1509 10.7904H49.456L50.4323 9.22948H51.4493L52.5885 11.1026V9.22948H53.6462L54.8465 10.6059V9.22948H55.5379V11.2162H55.5381ZM47.4627 9.22959H46.7711V11.2162H47.4627V9.22959ZM46.0185 9.31476C45.7947 9.22959 45.5507 9.22959 45.2047 9.22959H43.6385V11.2162H44.3097V10.4925H45.0419C45.286 10.4925 45.4488 10.5067 45.5505 10.5776C45.6725 10.677 45.6521 10.8473 45.6521 10.9608V11.2162H46.3437V10.8189C46.3437 10.6486 46.3233 10.5635 46.2216 10.4641C46.1605 10.4073 46.0386 10.3363 45.8961 10.2937C46.0791 10.237 46.3844 10.0809 46.3844 9.76871C46.3845 9.54178 46.2421 9.41402 46.0185 9.31476ZM43.1502 10.8048H41.5636V10.4074H43.1299V9.99594H41.5636V9.64115H43.1502V9.22969H40.872V11.2163H43.1502V10.8048ZM40.3635 9.22959H39.2447L38.4107 10.5776L37.5157 9.22959H36.4173V11.1027L35.2578 9.22959H34.2407L33.0202 11.2162H33.7525L34.0169 10.7763H35.4407L35.7051 11.2162H37.0882V9.65535L38.085 11.2163H38.6748L39.6715 9.65535V11.2163H40.363V9.22959H40.3635ZM51.3886 10.3506L50.9207 9.57018L50.4528 10.3506H51.3886ZM45.4896 10.0384C45.388 10.081 45.2861 10.081 45.1438 10.081H44.3098V9.64105H45.1438C45.2659 9.64105 45.4082 9.64105 45.4896 9.66944C45.571 9.71203 45.6116 9.76881 45.6116 9.85388C45.6116 9.93916 45.571 10.01 45.4896 10.0384ZM34.261 10.3506L34.7289 9.57018L35.1968 10.3506H34.261ZM57.2673 3H33V10.152L33.834 8.83221H35.6036L35.8478 9.15861V8.83221H37.9226L38.3905 9.54168L38.838 8.83221H45.4489C45.754 8.83221 46.0185 8.8748 46.2219 8.98836V8.83221H48.0322V8.98836C48.3373 8.8748 48.7237 8.83221 49.1714 8.83221H51.7954L52.0396 9.15861V8.83221H53.9718L54.2567 9.15861V8.83221H56.1484V11.6135H54.2364L53.8702 11.1877V11.6135H51.4903L51.2258 11.1594H50.6359L50.3714 11.6135H49.1306C48.6423 11.6135 48.2764 11.5283 48.0322 11.4433V11.6135H45.0828V10.9749C45.0828 10.8897 45.0624 10.8756 44.981 10.8756H44.8794V11.6134H39.1838V11.2586L38.9805 11.6134H37.7804L37.577 11.2728V11.6134H35.2785L35.0344 11.1593H34.4445L34.1801 11.6134H33.0003V20H57.2676V14.9055C57.0031 14.9907 56.6369 15.0333 56.2708 15.0333H54.501V14.863C54.2977 14.9765 53.9316 15.0333 53.5856 15.0333H48.0121V14.3948C48.0121 14.3096 47.9918 14.3096 47.89 14.3096H47.7884V15.0333H45.9578V14.281C45.6527 14.3805 45.3068 14.3805 45.0017 14.3805H44.7983V15.0333H42.5607L42.0319 14.6075L41.4421 15.0333H37.8417V12.2519H41.5032L42.0321 12.6777L42.6017 12.2519H45.063C45.3478 12.2519 45.8156 12.2804 46.0191 12.4222V12.2519H48.2159C48.4396 12.2519 48.8668 12.2804 49.1517 12.4222V12.2519H52.4672V12.4225C52.6503 12.3089 52.9961 12.2521 53.3012 12.2521H55.1522V12.4225C55.3557 12.3232 55.6406 12.2521 56.0066 12.2521H57.2679V3H57.2673Z" fill="#0078A9"/>
<path d="M94.0961 3.09809L120.482 3.09631L120.482 19.9031L94.0969 19.9035L94.0961 3.09809Z" fill="white"/>
<path d="M120.482 3L94 3.00185L94.0007 20L120.579 19.9996L120.578 3.00007H120.482V3ZM120.385 3.1926C120.385 3.38156 120.386 19.6173 120.386 19.8066C120.195 19.8066 94.3844 19.8073 94.1927 19.8073C94.1927 19.618 94.1922 3.38299 94.1922 3.19395C94.3833 3.19402 120.195 3.1926 120.385 3.1926Z" fill="black"/>
<path d="M120.385 12.4438C120.385 12.4438 113.176 17.5302 99.9725 19.8081H120.385V12.4438Z" fill="#F58220"/>
<path d="M107.919 7.31506C106.836 7.31506 105.957 8.16117 105.957 9.20542C105.957 10.3156 106.798 11.1455 107.919 11.1455C109.012 11.1455 109.876 10.3046 109.876 9.22722C109.876 8.15618 109.018 7.31506 107.919 7.31506Z" fill="url(#paint0_radial)"/>
<path d="M96.7818 7.38416H95.7271V11.0627H96.7762C97.3329 11.0627 97.7355 10.9308 98.0886 10.6384C98.5077 10.2909 98.7562 9.76684 98.7562 9.2253C98.7562 8.13923 97.9448 7.38416 96.7818 7.38416ZM97.6205 10.147C97.3937 10.3516 97.1018 10.44 96.6378 10.44H96.445V8.00711H96.6378C97.1018 8.00711 97.3826 8.08994 97.6205 8.30483C97.8687 8.52549 98.0166 8.86717 98.0166 9.22003C98.0166 9.57353 97.8687 9.92717 97.6205 10.147Z" fill="black"/>
<path d="M99.8042 7.38416H99.0874V11.0627H99.8042V7.38416Z" fill="black"/>
<path d="M101.559 8.79523C101.128 8.63561 101.001 8.53033 101.001 8.33247C101.001 8.10062 101.227 7.92426 101.536 7.92426C101.752 7.92426 101.928 8.01244 102.116 8.22142L102.491 7.73131C102.182 7.46044 101.812 7.32275 101.409 7.32275C100.759 7.32275 100.262 7.77526 100.262 8.37591C100.262 8.88383 100.494 9.14281 101.167 9.3862C101.449 9.48499 101.592 9.55087 101.663 9.59582C101.807 9.68962 101.879 9.82154 101.879 9.97596C101.879 10.2742 101.641 10.4945 101.321 10.4945C100.979 10.4945 100.704 10.3237 100.538 10.0038L100.075 10.4511C100.405 10.9358 100.803 11.1516 101.349 11.1516C102.094 11.1516 102.618 10.6545 102.618 9.94319C102.618 9.35842 102.376 9.09353 101.559 8.79523Z" fill="black"/>
<path d="M102.844 9.22513C102.844 10.3073 103.693 11.1455 104.786 11.1455C105.095 11.1455 105.36 11.0846 105.685 10.9307V10.0864C105.398 10.3734 105.144 10.489 104.819 10.489C104.096 10.489 103.583 9.96489 103.583 9.21993C103.583 8.51421 104.112 7.957 104.786 7.957C105.127 7.957 105.387 8.07838 105.685 8.37069V7.52637C105.371 7.36689 105.111 7.30115 104.802 7.30115C103.715 7.30108 102.844 8.15623 102.844 9.22513Z" fill="black"/>
<path d="M111.499 9.85516L110.517 7.38416H109.734L111.295 11.1567H111.681L113.27 7.38416H112.493L111.499 9.85516Z" fill="black"/>
<path d="M113.596 11.0627H115.632V10.4399H114.313V9.44646H115.581V8.82351H114.313V8.00711H115.632V7.38416H113.596V11.0627Z" fill="black"/>
<path d="M118.472 8.4698C118.472 7.78068 117.998 7.38416 117.17 7.38416H116.105V11.0627H116.823V9.58435H116.917L117.91 11.0627H118.792L117.633 9.5132C118.174 9.40258 118.472 9.03284 118.472 8.4698ZM117.032 9.07729H116.823V7.96266H117.043C117.491 7.96266 117.734 8.15077 117.734 8.50876C117.734 8.87807 117.491 9.07729 117.032 9.07729Z" fill="black"/>
<path d="M118.978 7.65803C118.978 7.59357 118.935 7.55859 118.856 7.55859H118.751V7.8826H118.828V7.7566L118.919 7.8826H119.015L118.907 7.7487C118.953 7.73666 118.978 7.70318 118.978 7.65803ZM118.843 7.70212H118.828V7.61785H118.843C118.881 7.61785 118.901 7.63174 118.901 7.65931C118.901 7.68773 118.881 7.70212 118.843 7.70212Z" fill="black"/>
<path d="M118.871 7.43665C118.714 7.43665 118.588 7.56279 118.588 7.7197C118.588 7.87669 118.715 8.00283 118.871 8.00283C119.025 8.00283 119.151 7.8754 119.151 7.7197C119.151 7.56464 119.025 7.43665 118.871 7.43665ZM118.871 7.95211C118.745 7.95211 118.644 7.84862 118.644 7.72048C118.644 7.59107 118.744 7.48829 118.871 7.48829C118.993 7.48829 119.094 7.59306 119.094 7.72048C119.094 7.8477 118.993 7.95211 118.871 7.95211Z" fill="black"/>
<path d="M102.158 12.0295L103.118 13.035V12.0821H103.255V13.3679L102.295 12.3647V13.3128H102.158V12.0295H102.158Z" fill="black"/>
<path d="M102.145 12.0295V13.3257H102.308C102.308 13.3257 102.308 12.456 102.308 12.3963C102.35 12.4402 103.268 13.3999 103.268 13.3999V12.069H103.105C103.105 12.069 103.105 12.943 103.105 13.0031C103.063 12.9585 102.145 11.9972 102.145 11.9972V12.0295ZM102.171 12.0615C102.213 12.1055 103.131 13.0673 103.131 13.0673C103.131 13.0673 103.131 12.1195 103.131 12.0943C103.149 12.0943 103.223 12.0943 103.242 12.0943C103.242 12.1191 103.242 13.2761 103.242 13.3365C103.2 13.2919 102.283 12.3322 102.283 12.3322C102.283 12.3322 102.283 13.2749 102.283 13.2998C102.263 13.2998 102.19 13.2998 102.171 13.2998C102.171 13.2754 102.171 12.1216 102.171 12.0615Z" fill="black"/>
<path d="M103.92 12.082H104.558V12.2091H104.057V12.5751H104.543V12.7023H104.057V13.1853H104.558V13.3128H103.92V12.082Z" fill="black"/>
<path d="M104.558 12.0691H103.907V13.3258H104.571V13.1725C104.571 13.1725 104.094 13.1725 104.07 13.1725C104.07 13.1487 104.07 12.7388 104.07 12.7146C104.094 12.7146 104.556 12.7146 104.556 12.7146V12.5627C104.556 12.5627 104.094 12.5627 104.07 12.5627C104.07 12.539 104.07 12.2452 104.07 12.2229C104.094 12.2229 104.571 12.2229 104.571 12.2229V12.0692H104.558V12.0691ZM104.545 12.0943C104.545 12.1127 104.545 12.1782 104.545 12.1962C104.52 12.1962 104.044 12.1962 104.044 12.1962V12.5878C104.044 12.5878 104.506 12.5878 104.53 12.5878C104.53 12.6059 104.53 12.6707 104.53 12.6893C104.506 12.6893 104.044 12.6893 104.044 12.6893V13.198C104.044 13.198 104.52 13.198 104.545 13.198C104.545 13.2168 104.545 13.2815 104.545 13.2999C104.521 13.2999 103.957 13.2999 103.933 13.2999C103.933 13.2754 103.933 12.1195 103.933 12.0943C103.957 12.0943 104.521 12.0943 104.545 12.0943Z" fill="black"/>
<path d="M105.526 13.3128H105.389V12.2091H105.092V12.082H105.826V12.2091H105.526V13.3128H105.526Z" fill="black"/>
<path d="M105.826 12.0691H105.078V12.2228C105.078 12.2228 105.352 12.2228 105.376 12.2228C105.376 12.2472 105.376 13.3257 105.376 13.3257H105.539C105.539 13.3257 105.539 12.2472 105.539 12.2228C105.562 12.2228 105.839 12.2228 105.839 12.2228V12.0691H105.826ZM105.814 12.0943C105.814 12.1127 105.814 12.1782 105.814 12.1962C105.79 12.1962 105.513 12.1962 105.513 12.1962C105.513 12.1962 105.513 13.275 105.513 13.2999C105.494 13.2999 105.421 13.2999 105.402 13.2999C105.402 13.275 105.402 12.1962 105.402 12.1962C105.402 12.1962 105.128 12.1962 105.105 12.1962C105.105 12.1782 105.105 12.1127 105.105 12.0943C105.128 12.0943 105.789 12.0943 105.814 12.0943Z" fill="black"/>
<path d="M106.744 13.0043L107.142 12.0178L107.54 13.0043L107.863 12.0821H108.012L107.54 13.3762L107.142 12.3849L106.744 13.3762L106.272 12.0821H106.421L106.744 13.0043Z" fill="black"/>
<path d="M107.13 12.0134C107.13 12.0134 106.768 12.909 106.744 12.968C106.723 12.9082 106.429 12.0691 106.429 12.0691H106.254L106.743 13.413C106.743 13.413 107.12 12.4763 107.142 12.4198C107.164 12.4763 107.54 13.413 107.54 13.413L108.03 12.0691H107.854C107.854 12.0691 107.56 12.9082 107.539 12.968C107.515 12.909 107.142 11.984 107.142 11.984L107.13 12.0134ZM106.755 13.009C106.755 13.009 107.12 12.1077 107.142 12.0529C107.164 12.1077 107.541 13.0407 107.541 13.0407C107.541 13.0407 107.866 12.1112 107.872 12.0943C107.886 12.0943 107.967 12.0943 107.994 12.0943C107.982 12.127 107.561 13.281 107.539 13.3405C107.516 13.2818 107.142 12.3509 107.142 12.3509C107.142 12.3509 106.767 13.2818 106.744 13.3405C106.723 13.2811 106.303 12.127 106.29 12.0943C106.316 12.0943 106.397 12.0943 106.411 12.0943C106.417 12.1112 106.743 13.0407 106.743 13.0407L106.755 13.009Z" fill="black"/>
<path d="M109.785 12.6986C109.785 13.0528 109.494 13.334 109.143 13.334C108.792 13.334 108.502 13.0528 108.502 12.6986C108.502 12.3462 108.792 12.0608 109.143 12.0608C109.494 12.0608 109.785 12.3463 109.785 12.6986ZM108.639 12.6972C108.639 12.9744 108.864 13.2062 109.143 13.2062C109.423 13.2062 109.647 12.9744 109.647 12.6972C109.647 12.4179 109.426 12.1875 109.143 12.1875C108.861 12.1875 108.639 12.4179 108.639 12.6972Z" fill="black"/>
<path d="M108.489 12.6986C108.489 13.0558 108.783 13.3466 109.143 13.3466C109.504 13.3466 109.798 13.0558 109.798 12.6986C109.798 12.3394 109.504 12.048 109.143 12.048C108.783 12.048 108.489 12.3394 108.489 12.6986ZM108.514 12.6986C108.514 12.3538 108.796 12.0738 109.143 12.0738C109.49 12.0738 109.773 12.3538 109.773 12.6986C109.773 13.042 109.49 13.321 109.143 13.321C108.796 13.3211 108.514 13.0421 108.514 12.6986Z" fill="black"/>
<path d="M108.626 12.6972C108.626 12.986 108.858 13.2193 109.143 13.2193C109.429 13.2193 109.66 12.986 109.66 12.6972C109.66 12.4093 109.429 12.1753 109.143 12.1753C108.858 12.1753 108.626 12.4093 108.626 12.6972ZM108.652 12.6972C108.652 12.4237 108.872 12.2009 109.143 12.2009C109.415 12.2009 109.634 12.4237 109.634 12.6972C109.634 12.9708 109.415 13.1941 109.143 13.1941C108.872 13.194 108.652 12.9708 108.652 12.6972Z" fill="black"/>
<path d="M110.516 13.3128H110.379V12.082H110.557C110.79 12.082 111.007 12.1444 111.007 12.4215C111.007 12.6109 110.889 12.7448 110.699 12.761L111.091 13.3128H110.922L110.551 12.7721H110.516V13.3128V13.3128ZM110.516 12.6516H110.559C110.714 12.6516 110.871 12.6224 110.871 12.4313C110.871 12.2293 110.722 12.2092 110.557 12.2092H110.516V12.6516H110.516Z" fill="black"/>
<path d="M110.38 12.0691H110.367V13.3258H110.529C110.529 13.3258 110.529 12.8096 110.529 12.7851C110.539 12.7851 110.55 12.7851 110.551 12.7851C110.551 12.7945 110.912 13.32 110.912 13.32L111.091 13.3258H111.116C111.116 13.3258 110.74 12.797 110.721 12.7685C110.902 12.7437 111.02 12.6109 111.02 12.4215C111.02 12.184 110.869 12.0691 110.557 12.0691H110.38V12.0691ZM110.557 12.0943C110.856 12.0943 110.995 12.1983 110.995 12.4215C110.995 12.6044 110.879 12.7333 110.698 12.7484L110.676 12.7505C110.676 12.7505 111.04 13.2624 111.067 13.2998C111.03 13.2998 110.923 13.2998 110.923 13.2998H110.923C110.923 13.2905 110.561 12.7649 110.561 12.7649L110.516 12.7595H110.504C110.504 12.7595 110.504 13.2753 110.504 13.2998C110.485 13.2998 110.411 13.2998 110.392 13.2998C110.392 13.2753 110.392 12.1194 110.392 12.0942C110.414 12.0943 110.557 12.0943 110.557 12.0943Z" fill="black"/>
<path d="M110.516 12.1962H110.503V12.6641H110.559C110.71 12.6641 110.883 12.6375 110.883 12.4312C110.883 12.2142 110.715 12.1962 110.557 12.1962H110.516V12.1962ZM110.557 12.2228C110.715 12.2228 110.858 12.2379 110.858 12.4312C110.858 12.6137 110.707 12.6382 110.559 12.6382C110.559 12.6382 110.542 12.6382 110.529 12.6382C110.529 12.6148 110.529 12.2459 110.529 12.2228C110.541 12.2228 110.557 12.2228 110.557 12.2228Z" fill="black"/>
<path d="M112.334 12.082H112.518L111.94 12.6555L112.537 13.3128H112.348L111.843 12.7481L111.809 12.7816V13.3128H111.672V12.0821H111.809V12.6091L112.334 12.082Z" fill="black"/>
<path d="M112.518 12.0691H112.328C112.328 12.0691 111.862 12.5374 111.822 12.5784C111.822 12.523 111.822 12.0691 111.822 12.0691H111.66V13.3258H111.822C111.822 13.3258 111.822 12.7862 111.822 12.7837C111.824 12.7844 111.834 12.7744 111.842 12.7665C111.86 12.7852 112.339 13.3215 112.339 13.3215L112.537 13.3258H112.567C112.567 13.3258 111.974 12.6732 111.957 12.6559C111.975 12.6383 112.548 12.0692 112.548 12.0692H112.518V12.0691ZM112.486 12.0943C112.445 12.1357 111.922 12.6548 111.922 12.6548C111.922 12.6548 112.472 13.2596 112.508 13.2999C112.466 13.2999 112.348 13.2999 112.348 13.2999C112.348 13.2934 111.853 12.7394 111.853 12.7394L111.844 12.7289L111.8 12.7729C111.8 12.7729 111.796 13.2754 111.796 13.2999C111.777 13.2999 111.703 13.2999 111.685 13.2999C111.685 13.2754 111.685 12.1195 111.685 12.0943C111.703 12.0943 111.777 12.0943 111.796 12.0943C111.796 12.1192 111.796 12.6404 111.796 12.6404C111.796 12.6404 112.331 12.1019 112.338 12.0943C112.347 12.0943 112.445 12.0943 112.486 12.0943Z" fill="black"/>
<path fill-rule="evenodd" clip-rule="evenodd" d="M62 20H88.8684V3H62V20Z" fill="#003473"/>
<path fill-rule="evenodd" clip-rule="evenodd" d="M75.456 16.9313C76.7525 18.1126 78.4958 18.8329 80.3832 18.8329C84.4459 18.8329 87.7307 15.5481 87.7307 11.4853C87.7307 7.43722 84.446 4.13806 80.3832 4.13806C78.4958 4.13806 76.7526 4.85843 75.456 6.03974C73.972 7.39396 73.0356 9.32438 73.0356 11.4853C73.0356 13.6468 73.972 15.5916 75.456 16.9313Z" fill="#FCB131"/>
<path fill-rule="evenodd" clip-rule="evenodd" d="M86.7506 15.5772C86.7506 15.4476 86.8514 15.3467 86.9957 15.3467C87.1253 15.3467 87.2262 15.4476 87.2262 15.5772C87.2262 15.7069 87.1253 15.8221 86.9957 15.8221C86.8515 15.822 86.7506 15.7069 86.7506 15.5772ZM86.9957 15.7643C87.0819 15.7643 87.1684 15.6781 87.1684 15.5771C87.1684 15.476 87.0821 15.4042 86.9957 15.4042C86.8948 15.4042 86.8082 15.4762 86.8082 15.5771C86.8082 15.678 86.8948 15.7643 86.9957 15.7643ZM86.9524 15.6925H86.9091V15.4763H86.9957C87.0101 15.4763 87.0388 15.4763 87.0533 15.4907C87.0677 15.5054 87.0821 15.5196 87.0821 15.534C87.0821 15.5628 87.0677 15.5916 87.0389 15.5916L87.0821 15.6925H87.0246L86.9958 15.606H86.9526V15.6925H86.9524ZM86.9524 15.5629H86.9812C86.9957 15.5629 87.0099 15.5629 87.0099 15.5629C87.0244 15.5629 87.0244 15.5482 87.0244 15.534C87.0244 15.534 87.0244 15.5196 87.0099 15.5196C87.0099 15.5196 86.9955 15.5196 86.9812 15.5196H86.9524V15.5629Z" fill="#FCB131"/>
<path fill-rule="evenodd" clip-rule="evenodd" d="M77.833 10.7076C77.8043 10.4483 77.7609 10.1889 77.7032 9.92972H73.2084C73.266 9.67044 73.338 9.411 73.4246 9.15171H77.4872C77.4008 8.89243 77.2998 8.63314 77.1847 8.37386H73.7271C73.8568 8.11457 74.0008 7.85513 74.1593 7.59585H76.7525C76.5941 7.32204 76.4068 7.06275 76.1906 6.81799H74.7212C74.9373 6.54418 75.1966 6.2849 75.4559 6.03998C74.1593 4.85868 72.4304 4.13831 70.5287 4.13831C66.4661 4.13831 63.1813 7.43746 63.1813 11.4856C63.1813 15.5482 66.4659 18.8332 70.5287 18.8332C72.4304 18.8332 74.1592 18.1126 75.4559 16.9315C75.7152 16.6866 75.9746 16.4271 76.205 16.1536H74.721C74.5193 15.9084 74.3321 15.6493 74.1592 15.3755H76.7525C76.911 15.1306 77.055 14.8714 77.1847 14.5976H73.7271C73.6118 14.3527 73.5109 14.0933 73.4246 13.8195H77.4872C77.5736 13.5603 77.6456 13.3007 77.7032 13.0416C77.7609 12.7825 77.8041 12.5229 77.833 12.2637C77.8618 12.0043 77.8761 11.745 77.8761 11.4856C77.8763 11.2261 77.8619 10.9669 77.833 10.7076Z" fill="#ED1C2E"/>
<path fill-rule="evenodd" clip-rule="evenodd" d="M86.7506 13.1857C86.7506 13.0558 86.8514 12.9552 86.9957 12.9552C87.1253 12.9552 87.2262 13.0558 87.2262 13.1857C87.2262 13.3154 87.1253 13.4307 86.9957 13.4307C86.8515 13.4307 86.7506 13.3154 86.7506 13.1857ZM86.9957 13.373C87.0819 13.373 87.1684 13.2865 87.1684 13.1857C87.1684 13.0848 87.0821 13.0128 86.9957 13.0128C86.8948 13.0128 86.8082 13.0848 86.8082 13.1857C86.8082 13.2865 86.8948 13.373 86.9957 13.373ZM86.9524 13.3007H86.9091V13.0848H86.9957C87.0101 13.0848 87.0388 13.0848 87.0533 13.0992C87.0677 13.1136 87.0821 13.1281 87.0821 13.1425C87.0821 13.1712 87.0677 13.2001 87.0389 13.2001L87.0821 13.3007H87.0246L86.9958 13.2145H86.9526V13.3007H86.9524ZM86.9524 13.1712H86.9812C86.9957 13.1712 87.0099 13.1712 87.0099 13.1712C87.0244 13.1712 87.0244 13.1569 87.0244 13.1425C87.0244 13.1425 87.0244 13.1281 87.0099 13.1281C87.0099 13.1281 86.9955 13.1281 86.9812 13.1281H86.9524V13.1712Z" fill="white"/>
<path fill-rule="evenodd" clip-rule="evenodd" d="M72.9635 13.6035C72.7186 13.6755 72.5457 13.7044 72.3584 13.7044C71.9838 13.7044 71.7533 13.4738 71.7533 13.0415C71.7533 12.9553 71.7677 12.8686 71.782 12.7677L71.8253 12.4795L71.8684 12.2346L72.2142 10.1602H72.9779L72.8915 10.6212H73.3669L73.2517 11.3847H72.7762L72.56 12.6237C72.56 12.6669 72.5457 12.7099 72.5457 12.7389C72.5457 12.8975 72.6321 12.9695 72.8195 12.9695C72.9204 12.9695 72.978 12.9551 73.0644 12.9406L72.9635 13.6035Z" fill="#003473"/>
<path fill-rule="evenodd" clip-rule="evenodd" d="M75.4271 13.5744C75.1533 13.6609 74.8796 13.7043 74.6058 13.7043C73.7558 13.7043 73.2516 13.2432 73.2516 12.3499C73.2516 11.3126 73.8422 10.5348 74.6491 10.5348C75.2974 10.5348 75.7153 10.967 75.7153 11.6441C75.7153 11.8603 75.6865 12.0761 75.6144 12.3932H74.0296C74.0296 12.4365 74.0296 12.4508 74.0296 12.4794C74.0296 12.8398 74.2601 13.0127 74.7211 13.0127C75.0093 13.0127 75.2685 12.955 75.5566 12.8251L75.4271 13.5744ZM74.9516 11.7736C74.9516 11.7159 74.9516 11.6583 74.9516 11.6297C74.9516 11.3847 74.8076 11.2408 74.5771 11.2408C74.3178 11.2408 74.1449 11.4281 74.0729 11.7737H74.9516V11.7736Z" fill="#003473"/>
<path fill-rule="evenodd" clip-rule="evenodd" d="M66.8694 13.6467H66.077L66.5381 10.7797L65.5152 13.6467H64.9678L64.9102 10.7939L64.4202 13.6467H63.6567L64.2762 9.91516H65.4143L65.4577 12.2203L66.2212 9.91516H67.489L66.8694 13.6467Z" fill="#003473"/>
<path fill-rule="evenodd" clip-rule="evenodd" d="M68.7856 12.2922C68.6992 12.2922 68.6847 12.2779 68.627 12.2779C68.1805 12.2779 67.9499 12.4508 67.9499 12.739C67.9499 12.9405 68.065 13.0557 68.2379 13.0557C68.627 13.0557 68.771 12.7388 68.7856 12.2922ZM69.4194 13.6466H68.7279L68.7423 13.3295C68.5694 13.5745 68.3388 13.7043 67.9067 13.7043C67.5177 13.7043 67.2008 13.3584 67.2008 12.8685C67.2008 12.7246 67.2295 12.5946 67.2583 12.4794C67.3879 12.0041 67.8634 11.7159 68.5838 11.7015C68.6701 11.7015 68.8143 11.7015 68.9296 11.7159C68.9583 11.6153 68.9583 11.572 68.9583 11.5144C68.9583 11.3126 68.7998 11.255 68.4252 11.255C68.1947 11.255 67.9499 11.2982 67.7626 11.3413L67.6617 11.3846H67.6041L67.7194 10.7075C68.0939 10.5924 68.3532 10.549 68.6414 10.549C69.3329 10.549 69.6931 10.8515 69.6931 11.4422C69.6931 11.5862 69.7074 11.7015 69.6498 12.033L69.4914 13.1132L69.4627 13.3005L69.4339 13.459V13.5599L69.4194 13.6466Z" fill="#003473"/>
<path fill-rule="evenodd" clip-rule="evenodd" d="M79.2592 10.6499C79.4752 10.6499 79.6769 10.7074 79.965 10.8516L80.0948 10.0303C80.0227 10.0016 80.0085 10.0016 79.9074 9.95829L79.5761 9.88628C79.4752 9.85754 79.3599 9.84302 79.2159 9.84302C78.827 9.84302 78.5964 9.84302 78.3517 10.0016C78.2219 10.0736 78.0635 10.1888 77.8762 10.3905L77.7899 10.3617L76.9687 10.9379L77.0118 10.621H76.1618L75.6865 13.6465H76.4789L76.7671 12.0184C76.7671 12.0184 76.8824 11.7878 76.94 11.7158C77.084 11.5285 77.2136 11.5285 77.3722 11.5285C77.4009 11.5285 77.4298 11.5285 77.4298 11.5285C77.4153 11.7014 77.4011 11.9029 77.4011 12.1049C77.4011 13.0989 77.9629 13.7185 78.8273 13.7185C79.0433 13.7185 79.2307 13.6896 79.5188 13.6033L79.6628 12.7531C79.4035 12.8827 79.1875 12.9404 78.9855 12.9404C78.5246 12.9404 78.2508 12.6092 78.2508 12.0329C78.2508 11.2261 78.6541 10.6499 79.2592 10.6499Z" fill="#003473"/>
<path fill-rule="evenodd" clip-rule="evenodd" d="M85.9872 9.91519L85.8143 10.9814C85.6269 10.6932 85.3965 10.5636 85.0939 10.5636C84.6763 10.5636 84.2872 10.794 84.0423 11.2407L83.5379 10.9381L83.5812 10.6212H82.7312L82.2413 13.6467H83.0479L83.3072 12.0185C83.3072 12.0185 83.5089 11.788 83.5665 11.716C83.6818 11.5721 83.8116 11.5287 83.9123 11.5287C83.8259 11.7878 83.7683 12.0907 83.7683 12.4218C83.7683 13.1856 84.1718 13.6897 84.748 13.6897C85.0361 13.6897 85.2667 13.5888 85.4829 13.3438L85.4396 13.6465H86.2031L86.8082 9.91504H85.9872V9.91519ZM85.0221 12.9262C84.7483 12.9262 84.6186 12.7389 84.6186 12.3356C84.6186 11.745 84.8635 11.3127 85.2381 11.3127C85.5117 11.3127 85.6558 11.5288 85.6558 11.9178C85.6558 12.5085 85.3965 12.9262 85.0221 12.9262Z" fill="#003473"/>
<path fill-rule="evenodd" clip-rule="evenodd" d="M81.3484 12.2922C81.262 12.2922 81.2475 12.2779 81.19 12.2779C80.7433 12.2779 80.5127 12.4508 80.5127 12.739C80.5127 12.9405 80.628 13.0557 80.8009 13.0557C81.1899 13.0557 81.3339 12.7388 81.3484 12.2922ZM81.9822 13.6466H81.2908L81.3051 13.3295C81.1324 13.5745 80.9018 13.7043 80.4696 13.7043C80.0806 13.7043 79.7347 13.3728 79.7347 12.8685C79.7493 12.1482 80.2822 11.7015 81.1466 11.7015C81.233 11.7015 81.3771 11.7015 81.4924 11.7159C81.5212 11.6153 81.5211 11.572 81.5211 11.5144C81.5211 11.3126 81.3626 11.255 80.9881 11.255C80.7575 11.255 80.4984 11.2982 80.3255 11.3413L80.2102 11.3846H80.1669L80.2822 10.7075C80.6568 10.5924 80.916 10.549 81.2042 10.549C81.8957 10.549 82.2559 10.8515 82.2559 11.4422C82.2559 11.5862 82.2704 11.7015 82.2128 12.033L82.0542 13.1132L82.0255 13.3005L81.9968 13.459L81.9824 13.5599V13.6466H81.9822Z" fill="#003473"/>
<path fill-rule="evenodd" clip-rule="evenodd" d="M71.0761 11.2693C71.2347 11.2693 71.4507 11.2837 71.6812 11.3126L71.7965 10.6066C71.5661 10.5778 71.2636 10.549 71.0763 10.549C70.1974 10.549 69.8948 11.0244 69.8948 11.5862C69.8948 11.9463 70.0677 12.2201 70.4856 12.4074C70.8169 12.5659 70.8745 12.5946 70.8745 12.7244C70.8745 12.9117 70.7016 13.027 70.3847 13.027C70.1541 13.027 69.9381 12.9837 69.6787 12.9117L69.5923 13.6032H69.6067L69.7508 13.6319C69.7939 13.6466 69.8659 13.6608 69.9525 13.6608C70.1541 13.6896 70.3125 13.6896 70.4134 13.6896C71.2923 13.6896 71.6667 13.3584 71.6667 12.6812C71.6667 12.2635 71.4651 12.0183 71.0616 11.8454C70.7303 11.6871 70.6871 11.6728 70.6871 11.5286C70.6872 11.3846 70.8312 11.2693 71.0761 11.2693Z" fill="#003473"/>
<path fill-rule="evenodd" clip-rule="evenodd" d="M80.3108 9.79995L80.1811 10.6067C79.893 10.4627 79.6913 10.4051 79.4751 10.4051C78.8702 10.4051 78.4524 10.9814 78.4524 11.8025C78.4524 12.3642 78.7406 12.71 79.2015 12.71C79.4031 12.71 79.6192 12.6524 79.8786 12.5228L79.7346 13.3729C79.4464 13.4449 79.2593 13.4738 79.0287 13.4738C78.1787 13.4738 77.6456 12.8686 77.6456 11.8745C77.6456 10.5347 78.3805 9.61267 79.4322 9.61267C79.5762 9.61267 79.6915 9.62704 79.7922 9.64142L80.1237 9.72779C80.2244 9.77121 80.2389 9.77121 80.3108 9.79995Z" fill="white"/>
<path fill-rule="evenodd" clip-rule="evenodd" d="M77.7609 10.362C77.7322 10.3477 77.7033 10.3477 77.6746 10.3477C77.4153 10.3477 77.2711 10.4773 77.0263 10.8375L77.0984 10.3765H76.3636L75.8883 13.4164H76.6807C76.9689 11.5577 77.0407 11.2409 77.4298 11.2409C77.4442 11.2409 77.4442 11.2409 77.4874 11.2409C77.5594 10.8808 77.6458 10.6069 77.79 10.362H77.7609V10.362Z" fill="white"/>
<path fill-rule="evenodd" clip-rule="evenodd" d="M73.1653 13.373C72.9491 13.445 72.7764 13.4739 72.5889 13.4739C72.1855 13.4739 71.9551 13.2434 71.9551 12.811C71.9551 12.7248 71.9694 12.6381 71.984 12.5372L72.0271 12.2347L72.0703 12.0041L72.4162 9.92969H73.2085L73.1222 10.3763H73.5256L73.4103 11.1254H73.0069L72.7907 12.3788C72.7907 12.4365 72.7764 12.4794 72.7764 12.5085C72.7764 12.667 72.8627 12.739 73.0502 12.739C73.1511 12.739 73.2087 12.7246 73.2663 12.7101L73.1653 13.373Z" fill="white"/>
<path fill-rule="evenodd" clip-rule="evenodd" d="M70.0966 11.3414C70.0966 11.716 70.2839 11.9898 70.7017 12.1769C71.033 12.3354 71.0763 12.3787 71.0763 12.5227C71.0763 12.71 70.9323 12.7965 70.6152 12.7965C70.3847 12.7965 70.1687 12.7533 69.9092 12.6669L69.7939 13.3727H69.8372L69.9814 13.4015C70.0245 13.4161 70.0965 13.4304 70.183 13.4304C70.3703 13.4447 70.5288 13.4591 70.6296 13.4591C71.4652 13.4591 71.8542 13.1423 71.8542 12.4507C71.8542 12.033 71.6956 11.7878 71.2923 11.6005C70.961 11.4567 70.9178 11.4133 70.9178 11.2836C70.9178 11.1109 71.0474 11.0243 71.3067 11.0243C71.4652 11.0243 71.6813 11.0531 71.8831 11.082L71.9982 10.3761C71.7965 10.3474 71.4795 10.3185 71.2923 10.3185C70.3992 10.3185 70.0966 10.7797 70.0966 11.3414Z" fill="white"/>
<path fill-rule="evenodd" clip-rule="evenodd" d="M86.405 13.4162H85.6415L85.6846 13.1135C85.4686 13.344 85.2381 13.4449 84.9499 13.4449C84.3735 13.4449 83.9847 12.9552 83.9847 12.1917C83.9847 11.183 84.5753 10.3332 85.2813 10.3332C85.5981 10.3332 85.8286 10.4628 86.0448 10.751L86.2177 9.68481H87.0101L86.405 13.4162ZM85.2235 12.6956C85.5981 12.6956 85.8574 12.278 85.8574 11.673C85.8574 11.2983 85.7134 11.0821 85.4397 11.0821C85.0795 11.0821 84.8201 11.4998 84.8201 12.1051C84.8201 12.4941 84.9499 12.6956 85.2235 12.6956Z" fill="white"/>
<path fill-rule="evenodd" clip-rule="evenodd" d="M75.5999 13.3439C75.3261 13.4304 75.0668 13.4738 74.7787 13.4738C73.8855 13.4738 73.4244 12.9982 73.4244 12.1195C73.4244 11.0678 74.015 10.3043 74.8219 10.3043C75.4703 10.3043 75.8881 10.7365 75.8881 11.4136C75.8881 11.6298 75.8594 11.8457 75.8017 12.1627H74.217C74.2026 12.206 74.2026 12.2204 74.2026 12.249C74.2026 12.5948 74.4331 12.7822 74.9086 12.7822C75.1824 12.7822 75.4417 12.7246 75.7297 12.5946L75.5999 13.3439ZM75.1532 11.5431C75.1532 11.4855 75.1532 11.428 75.1532 11.3847C75.1532 11.1398 75.0236 10.9958 74.7787 10.9958C74.5337 10.9958 74.3465 11.1974 74.2745 11.5433H75.1532V11.5431Z" fill="white"/>
<path fill-rule="evenodd" clip-rule="evenodd" d="M67.0712 13.4162H66.2788L66.7398 10.5491L65.7169 13.4162H65.1695L65.1119 10.5636L64.6221 13.4162H63.8873L64.5068 9.68469H65.6448L65.6881 11.9898L66.4517 9.68469H67.6907L67.0712 13.4162Z" fill="white"/>
<path fill-rule="evenodd" clip-rule="evenodd" d="M69.0449 12.0618C68.9585 12.0474 68.9153 12.0474 68.8576 12.0474C68.4111 12.0474 68.1805 12.206 68.1805 12.5085C68.1805 12.6958 68.2958 12.8253 68.4687 12.8253C68.8 12.8253 69.0306 12.5085 69.0449 12.0618ZM69.6211 13.4162H68.9584L68.9728 13.0991C68.7711 13.344 68.5117 13.4591 68.1371 13.4591C67.7049 13.4591 67.4167 13.128 67.4167 12.638C67.4167 11.9031 67.9209 11.4711 68.8142 11.4711C68.9006 11.4711 69.0159 11.4711 69.1311 11.4854C69.1599 11.3991 69.1599 11.3558 69.1599 11.2982C69.1599 11.0965 69.0302 11.0244 68.6557 11.0244C68.4251 11.0244 68.1659 11.0531 67.993 11.1109L67.8777 11.1396L67.8057 11.154L67.9209 10.4769C68.3244 10.3618 68.5837 10.3184 68.8719 10.3184C69.5633 10.3184 69.9235 10.6209 69.9235 11.1973C69.9235 11.3558 69.9092 11.4711 69.8515 11.8024L69.693 12.8826L69.6641 13.0702L69.6497 13.2284L69.6353 13.3293L69.6211 13.4162Z" fill="white"/>
<path fill-rule="evenodd" clip-rule="evenodd" d="M81.6075 12.0618C81.5211 12.0474 81.4777 12.0474 81.4202 12.0474C80.9735 12.0474 80.743 12.206 80.743 12.5085C80.743 12.6958 80.8582 12.8253 81.0312 12.8253C81.3482 12.8253 81.593 12.5085 81.6075 12.0618ZM82.1837 13.4162H81.521L81.5354 13.0991C81.3337 13.344 81.06 13.4591 80.6999 13.4591C80.2677 13.4591 79.965 13.128 79.965 12.638C79.965 11.9031 80.4837 11.4711 81.3768 11.4711C81.4632 11.4711 81.5785 11.4711 81.6937 11.4854C81.7225 11.3991 81.7225 11.3558 81.7225 11.2982C81.7225 11.0965 81.5927 11.0244 81.2183 11.0244C80.9876 11.0244 80.7285 11.0531 80.5555 11.1109L80.4403 11.1396L80.3681 11.154L80.4834 10.4769C80.8868 10.3618 81.1461 10.3184 81.4343 10.3184C82.1258 10.3184 82.486 10.6209 82.486 11.1973C82.486 11.3558 82.4716 11.4711 82.414 11.8024L82.2554 12.8826L82.2267 13.0702L82.1979 13.2284L82.1836 13.3293V13.4162H82.1837Z" fill="white"/>
<path fill-rule="evenodd" clip-rule="evenodd" d="M84.316 10.362C84.3017 10.3477 84.2729 10.3477 84.244 10.3477C83.9847 10.3477 83.8262 10.4773 83.5813 10.8375L83.6533 10.3765H82.9331L82.4432 13.4164H83.25C83.5236 11.5577 83.61 11.2409 83.9847 11.2409C84.0135 11.2409 84.0135 11.2409 84.0424 11.2409C84.1144 10.8808 84.2153 10.6069 84.3449 10.362H84.316V10.362Z" fill="white"/>
<defs>
<radialGradient id="paint0_radial" cx="0" cy="0" r="1" gradientUnits="userSpaceOnUse" gradientTransform="translate(107.917 9.23032) scale(1.93729)">
<stop offset="0.0056" stop-color="#FFEFE1"/>
<stop offset="0.0968" stop-color="#FFEAD8"/>
<stop offset="0.2456" stop-color="#FEDEC1"/>
<stop offset="0.4337" stop-color="#FDCA9E"/>
<stop offset="0.6534" stop-color="#FAAF72"/>
<stop offset="0.8971" stop-color="#F79038"/>
<stop offset="1" stop-color="#F58220"/>
</radialGradient>
</defs>
</svg>
