<svg width="91" height="22" viewBox="0 0 91 22" fill="none" xmlns="http://www.w3.org/2000/svg">
<path d="M69.8299 4.9198H64.8438C64.503 4.9198 64.2128 5.16786 64.1597 5.50443L62.1434 18.2889C62.1038 18.5412 62.2985 18.7695 62.554 18.7695H65.1123C65.3507 18.7695 65.5542 18.5959 65.5911 18.3601L66.163 14.7356C66.2161 14.3989 66.5063 14.151 66.8473 14.151H68.4251C71.709 14.151 73.6043 12.5616 74.0997 9.41149C74.3227 8.03384 74.1087 6.95131 73.4635 6.19347C72.7543 5.36034 71.4977 4.9198 69.8299 4.9198ZM70.4051 9.58897C70.1326 11.3787 68.7659 11.3787 67.4436 11.3787H66.6916L67.2191 8.03721C67.2511 7.83531 67.4253 7.68652 67.6296 7.68652H67.9745C68.8744 7.68652 69.7245 7.68652 70.1626 8.19922C70.425 8.50599 70.5041 8.96065 70.4051 9.58897Z" fill="#009BDE"/>
<path d="M34.2689 4.9198H29.2832C28.9423 4.9198 28.6521 5.16786 28.5988 5.50443L26.5825 18.2889C26.5429 18.5412 26.7378 18.7695 26.9933 18.7695H29.3739C29.7147 18.7695 30.0049 18.5215 30.0582 18.1847L30.6023 14.7356C30.6554 14.3989 30.9456 14.151 31.2864 14.151H32.8642C36.1483 14.151 38.0436 12.5616 38.539 9.41149C38.762 8.03384 38.548 6.95131 37.9031 6.19347C37.1936 5.36034 35.937 4.9198 34.2689 4.9198ZM34.8444 9.58897C34.5719 11.3787 33.205 11.3787 31.8832 11.3787H31.1309L31.6584 8.03721C31.6904 7.83531 31.8643 7.68652 32.0689 7.68652H32.4138C33.3137 7.68652 34.1638 7.68652 34.6019 8.19922C34.8641 8.50599 34.9434 8.96065 34.8444 9.58897Z" fill="#002F87"/>
<path d="M49.171 9.53203H46.7838C46.5792 9.53203 46.4051 9.68082 46.3731 9.88294L46.2682 10.5505L46.1013 10.3087C45.5841 9.55802 44.4319 9.3075 43.2812 9.3075C40.6438 9.3075 38.3904 11.3063 37.9519 14.1098C37.7236 15.5083 38.0476 16.8447 38.8406 17.7775C39.5691 18.6346 40.6088 18.9914 41.8476 18.9914C43.9734 18.9914 45.1527 17.6254 45.1527 17.6254L45.0461 18.2891C45.006 18.5414 45.2009 18.77 45.4566 18.77H47.6067C47.9475 18.77 48.2374 18.5219 48.2908 18.1853L49.5815 10.0125C49.6214 9.75991 49.4264 9.53203 49.171 9.53203ZM45.844 14.179C45.6135 15.5432 44.5305 16.4588 43.1492 16.4588C42.4568 16.4588 41.9025 16.2361 41.5462 15.8146C41.193 15.3964 41.0601 14.8008 41.1722 14.1376C41.3871 12.7857 42.4875 11.8403 43.8477 11.8403C44.5255 11.8403 45.0761 12.0653 45.4393 12.4908C45.8048 12.9192 45.9485 13.5189 45.844 14.179Z" fill="#002F87"/>
<path d="M84.7319 9.53203H82.3448C82.1402 9.53203 81.9661 9.68082 81.9342 9.88294L81.8292 10.5505L81.6622 10.3087C81.145 9.55802 79.9928 9.3075 78.8422 9.3075C76.2045 9.3075 73.9514 11.3063 73.5131 14.1098C73.2847 15.5083 73.6088 16.8447 74.4018 17.7775C75.1303 18.6346 76.17 18.9914 77.4087 18.9914C79.5346 18.9914 80.7139 17.6254 80.7139 17.6254L80.6072 18.2891C80.5671 18.5414 80.7621 18.77 81.0178 18.77H83.1678C83.5086 18.77 83.7986 18.5219 83.8519 18.1853L85.1426 10.0125C85.1823 9.75991 84.9871 9.53203 84.7319 9.53203ZM81.4047 14.179C81.1742 15.5432 80.0914 16.4588 78.7102 16.4588C78.0175 16.4588 77.4634 16.2361 77.1069 15.8146C76.754 15.3964 76.6209 14.8008 76.7329 14.1376C76.948 12.7857 78.048 11.8403 79.4082 11.8403C80.086 11.8403 80.6366 12.0653 81.0001 12.4908C81.3655 12.9192 81.5094 13.5189 81.4047 14.179Z" fill="#009BDE"/>
<path d="M61.8866 9.53196H59.4869C59.2575 9.53196 59.0428 9.64579 58.9138 9.83559L55.6036 14.7107L54.2007 10.0261C54.1128 9.73274 53.843 9.53174 53.5372 9.53174H51.1783C50.8935 9.53174 50.6931 9.81184 50.7848 10.0816L53.4271 17.8375L50.9419 21.3441C50.7467 21.6195 50.9437 22 51.2811 22H53.6783C53.9056 22 54.1182 21.8887 54.2477 21.702L62.2281 10.1843C62.419 9.90864 62.2219 9.53196 61.8866 9.53196Z" fill="#002F87"/>
<path d="M87.5459 5.27098L85.4994 18.2894C85.4597 18.5417 85.6547 18.7698 85.9099 18.7698H87.9681C88.3089 18.7698 88.5991 18.5218 88.6524 18.1852L90.6701 5.40072C90.7099 5.14841 90.515 4.92029 90.2595 4.92029H87.9567C87.7519 4.91984 87.5777 5.06886 87.5459 5.27098Z" fill="#009BDE"/>
<path d="M16.8019 5.58946C17.0703 3.87794 16.8001 2.71361 15.8744 1.65864C14.8553 0.497454 13.0142 0 10.6587 0H3.82111C3.33978 0 2.92972 0.350232 2.85465 0.825955L0.00725822 18.8808C-0.0487619 19.2371 0.226634 19.5591 0.586956 19.5591H4.80818L4.51688 21.4066C4.46781 21.7183 4.70847 22 5.02397 22H8.58193C9.00297 22 9.3615 21.6937 9.42716 21.2776L9.46211 21.0965L10.1323 16.8461L10.1756 16.6113C10.2412 16.1954 10.5998 15.8886 11.0208 15.8886H11.553C15 15.8886 17.6991 14.4884 18.4876 10.4383C18.8173 8.74608 18.6467 7.33348 17.7753 6.34035C17.5122 6.04054 17.1842 5.79203 16.8019 5.58946Z" fill="#009BDE"/>
<path d="M16.8019 5.58947C17.0703 3.87794 16.8001 2.71361 15.8744 1.65864C14.8553 0.497454 13.0142 0 10.6587 0H3.82111C3.33978 0 2.92972 0.350232 2.85465 0.825955L0.00725821 18.8808C-0.0487619 19.2371 0.226634 19.5591 0.586956 19.5591H4.80818L5.86853 12.8351L5.83559 13.046C5.91066 12.5705 6.31692 12.22 6.79847 12.22H8.80488C12.7451 12.22 15.8305 10.6192 16.7317 5.98967C16.7586 5.85298 16.7813 5.7201 16.8019 5.58947Z" fill="#022169"/>
<path d="M7.00778 5.61224C7.05282 5.32631 7.23656 5.09192 7.48372 4.97361C7.59599 4.91983 7.7217 4.88981 7.85323 4.88981H13.213C13.8481 4.88981 14.4401 4.93149 14.9812 5.01865C15.1359 5.04353 15.2864 5.0722 15.4328 5.10469C15.5789 5.13719 15.7209 5.17327 15.8583 5.2136C15.9271 5.23355 15.9945 5.25483 16.0611 5.27679C16.3268 5.36508 16.5744 5.46905 16.8021 5.58983C17.0706 3.8783 16.8003 2.71398 15.8746 1.65901C14.8555 0.497827 13.0145 0.000366211 10.6589 0.000366211H3.82135C3.34003 0.000366211 2.92996 0.350605 2.85489 0.826328L0.00750243 18.8812C-0.0485177 19.2375 0.226875 19.5595 0.587197 19.5595H4.80842L5.86878 12.8355L7.00778 5.61224Z" fill="#002F87"/>
</svg>
